<?xml version="1.0" encoding="UTF-8"?> <!-- Generator: Adobe Illustrator 23.1.1, SVG Export Plug-In . SVG Version: 6.00 Build 0) --> <svg xmlns="http://www.w3.org/2000/svg" xmlns:xlink="http://www.w3.org/1999/xlink" id="icon" x="0px" y="0px" viewBox="0 0 1000 1000" style="enable-background:new 0 0 1000 1000;" xml:space="preserve"> <path d="M915.8,553c-13.1-24.8-31.5-45.4-54.5-61.1c-7.2-4.9-14.3-9-21.3-12.5V440c0-48.4-7.7-93.8-22.9-135 c-15.3-41.5-37.9-77.9-67.2-108.3C688.9,133.4,602.5,100,500,100c-102.5,0-188.9,33.4-249.9,96.7c-29.3,30.3-51.9,66.8-67.2,108.3 c-15.2,41.2-22.9,86.7-22.9,135v39.4c-6.9,3.5-14.1,7.6-21.3,12.5c-23,15.8-41.4,36.3-54.5,61.1C68.1,583.3,60,619.8,60,661.5 s8.1,78.2,24.2,108.5c13.1,24.8,31.5,45.4,54.5,61.1c23.6,16.2,47.3,23.8,62.6,27.4c5.5,24.6,27.4,43,53.7,43h50 c30.4,0,55-24.6,55-55V475c0-30.4-24.6-55-55-55h-50c-26.8,0-49.1,19.2-54,44.6V440c0-43.6,5.9-84.4,19.5-121.2 c13.4-36.3,33.1-68,58.5-94.4C332.2,169.2,408.6,140,500,140c91.3,0,167.8,29.2,221.1,84.5c25.4,26.3,45.1,58.1,58.5,94.4 C793.1,355.6,799,396.4,799,440v24.6c-4.9-25.4-27.2-44.6-54-44.6h-50c-30.4,0-55,24.6-55,55v371.5c0,30.4,24.6,55,55,55h50 c26.3,0,48.2-18.4,53.7-43c15.3-3.5,39-11.2,62.6-27.4c23-15.8,41.4-36.3,54.5-61.1c16.1-30.3,24.2-66.8,24.2-108.5 S931.9,583.3,915.8,553z M100,661.5c0-62.1,20.2-107.8,59.9-135.7c14.3-10,28.7-16,40.1-19.5v310.4c-11.3-3.5-25.8-9.5-40.1-19.5 C120.2,769.3,100,723.6,100,661.5z M240,478c0-9.9,8.1-18,18-18h44c9.9,0,18,8.1,18,18v365.5c0,9.9-8.1,18-18,18h-44 c-9.9,0-18-8.1-18-18V478z M760,843.5c0,9.9-8.1,18-18,18h-44c-9.9,0-18-8.1-18-18V478c0-9.9,8.1-18,18-18h44c9.9,0,18,8.1,18,18 V843.5z M840.1,797.2c-14.3,10-28.7,16-40.1,19.5V506.3c11.3,3.5,25.8,9.5,40.1,19.5c39.8,27.9,59.9,73.6,59.9,135.7 S879.8,769.3,840.1,797.2z"></path> </svg> 